HIERARCHY
ROOT Hips
{
 OFFSET 0.000000 0.000000 0.000000
 CHANNELS 6 Xposition Yposition Zposition Yrotation Xrotation Zrotation
 JOINT Chest
 {
  OFFSET 0.000000 9.303000 0.001900
  CHANNELS 3 Yrotation Xrotation Zrotation
  JOINT Chest2
  {
   OFFSET 0.000000 9.301100 -0.003900
   CHANNELS 3 Yrotation Xrotation Zrotation
   JOINT Chest3
   {
    OFFSET 0.000000 9.262800 0.000000
    CHANNELS 3 Yrotation Xrotation Zrotation
    JOINT Chest4
    {
     OFFSET 0.000000 9.253300 0.000000
     CHANNELS 3 Yrotation Xrotation Zrotation
     JOINT Neck
     {
      OFFSET 0.000000 14.010300 0.000000
      CHANNELS 3 Yrotation Xrotation Zrotation
      JOINT Head
      {
       OFFSET 0.000000 8.657600 -0.008300
       CHANNELS 3 Yrotation Xrotation Zrotation
       End Site
       {
        OFFSET 0.000000 16.540200 -0.004400
       }
      }
     }
     JOINT RightCollar
     {
      OFFSET -2.834100 9.267700 0.000000
      CHANNELS 3 Yrotation Xrotation Zrotation
      JOINT RightShoulder
      {
       OFFSET -13.135200 0.000000 0.000000
       CHANNELS 3 Yrotation Xrotation Zrotation
       JOINT RightElbow
       {
        OFFSET 0.000000 -28.893500 0.000000
        CHANNELS 3 Yrotation Xrotation Zrotation
        JOINT RightWrist
        {
         OFFSET 0.000000 -23.344000 0.000000
         CHANNELS 3 Yrotation Xrotation Zrotation
         End Site
         {
          OFFSET 0.000000 -17.223000 0.000000
         }
        }
       }
      }
     }
     JOINT LeftCollar
     {
      OFFSET 2.834100 9.267700 0.000000
      CHANNELS 3 Yrotation Xrotation Zrotation
      JOINT LeftShoulder
      {
       OFFSET 13.135200 0.000000 0.000000
       CHANNELS 3 Yrotation Xrotation Zrotation
       JOINT LeftElbow
       {
        OFFSET 0.000000 -28.893500 0.000000
        CHANNELS 3 Yrotation Xrotation Zrotation
        JOINT LeftWrist
        {
         OFFSET 0.000000 -23.344000 0.000000
         CHANNELS 3 Yrotation Xrotation Zrotation
         End Site
         {
          OFFSET 0.000000 -17.223000 0.000000
         }
        }
       }
      }
     }
    }
   }
  }
 }
 JOINT RightHip
 {
  OFFSET -7.547200 -0.009500 -0.001000
  CHANNELS 3 Yrotation Xrotation Zrotation
  JOINT RightKnee
  {
   OFFSET 0.000000 -39.762800 0.000900
   CHANNELS 3 Yrotation Xrotation Zrotation
   JOINT RightAnkle
   {
    OFFSET 0.000000 -38.588200 0.001600
    CHANNELS 3 Yrotation Xrotation Zrotation
    JOINT RightToe
    {
     OFFSET 0.000000 -4.693300 10.419700
     CHANNELS 3 Yrotation Xrotation Zrotation
     End Site
     {
      OFFSET 0.000000 -1.379900 5.669300
     }
    }
   }
  }
 }
 JOINT LeftHip
 {
  OFFSET 7.547200 -0.009500 -0.001000
  CHANNELS 3 Yrotation Xrotation Zrotation
  JOINT LeftKnee
  {
   OFFSET 0.000000 -39.762800 0.000900
   CHANNELS 3 Yrotation Xrotation Zrotation
   JOINT LeftAnkle
   {
    OFFSET 0.000000 -38.588200 0.001600
    CHANNELS 3 Yrotation Xrotation Zrotation
    JOINT LeftToe
    {
     OFFSET 0.000000 -4.693300 10.419700
     CHANNELS 3 Yrotation Xrotation Zrotation
     End Site
     {
      OFFSET 0.000000 -1.379900 5.669300
     }
    }
   }
  }
 }
}
MOTION
Frames: 15
Frame Time: 0.008333
22.273483 45.774022 -10.932597 159.637621 -12.699108 0.141256 2.292261 6.862522 3.410885 0.093529 0.325861 0.165740 0.164094 0.569229 0.289936 2.043296 6.419665 3.406032 -8.876893 0.401114 7.633903 -13.484119 -26.014988 12.286617 7.926432 -3.680784 -9.662845 -0.907105 -19.763241 -11.035649 -128.176263 -73.616851 152.015959 -12.062873 -8.086491 -20.223658 -9.132600 -7.132225 -1.227547 11.075255 -15.046314 14.431492 71.964624 -62.425796 -107.821010 4.983561 -1.649930 10.865868 -20.328190 -74.597899 18.724149 -134.404237 85.879353 -134.430489 -6.113539 -8.680738 -3.211920 -0.074900 -0.162683 0.148278 -4.790752 -74.266908 26.626025 85.345118 78.023092 84.064122 -12.103627 -7.696378 0.042886 0.383182 0.592358 0.078114
22.290024 45.772493 -10.902694 159.597665 -12.793623 0.138929 2.254081 6.862875 3.445792 0.091705 0.326654 0.167327 0.160837 0.570582 0.292782 2.005578 6.427289 3.431895 -8.899024 0.496651 7.651649 -13.502075 -25.897593 12.300984 7.761020 -3.520066 -9.636404 -1.536990 -19.665263 -10.204810 -131.543442 -72.824750 155.572314 -12.128586 -8.299284 -20.066943 -8.840011 -6.825512 -1.194281 11.923589 -15.039344 13.384724 74.698189 -62.098537 -110.955603 5.078181 -1.719612 10.653135 -20.089152 -74.527219 18.644590 -133.772847 85.881271 -133.849264 -6.153290 -8.617154 -3.172998 -0.087235 -0.167414 0.167832 -4.862084 -74.153657 26.697122 85.090544 78.006704 83.850106 -12.101574 -7.657420 -0.033666 0.408483 0.592900 0.091103
22.301011 45.773485 -10.873390 159.556452 -12.883919 0.165655 2.204426 6.860716 3.447871 0.089943 0.328034 0.169203 0.157700 0.572925 0.295981 1.967923 6.440695 3.459703 -8.928282 0.600851 7.680941 -13.532180 -25.769264 12.331783 7.612133 -3.364394 -9.613092 -2.185324 -19.502280 -9.388286 -134.342349 -72.003240 158.617884 -12.200053 -8.537807 -19.913796 -8.525053 -6.527868 -1.145870 12.779891 -14.955995 12.310445 77.292887 -61.683580 -114.032928 5.212681 -1.842989 10.369776 -19.758017 -74.467541 18.468421 -133.005267 85.880759 -133.124255 -6.244572 -8.563733 -3.123352 -0.074610 -0.167947 0.137446 -4.919173 -74.020185 26.726115 84.818934 77.966469 83.586683 -12.077229 -7.630706 -0.093893 0.404792 0.604750 0.091815
22.316214 45.777308 -10.843575 159.500865 -12.984601 0.164949 2.164169 6.868075 3.480212 0.088195 0.329812 0.171252 0.154670 0.575969 0.299525 1.930311 6.457799 3.489109 -8.971926 0.714549 7.720115 -13.583283 -25.629023 12.379143 7.478692 -3.205815 -9.594931 -2.806680 -19.283997 -8.601296 -136.633300 -71.189932 161.181305 -12.274101 -8.798914 -19.774857 -8.187053 -6.230549 -1.085506 13.609314 -14.799589 11.219975 79.711959 -61.198829 -116.990108 5.389878 -2.022037 10.013861 -19.502083 -74.383001 18.376459 -132.156482 85.881705 -132.314511 -6.302416 -8.501528 -3.073781 -0.133013 -0.172333 0.137708 -4.972425 -73.892385 26.802281 84.544590 77.957150 83.343287 -12.081726 -7.592371 -0.158181 0.413303 0.601596 0.121964
22.330918 45.783377 -10.814048 159.437652 -13.089856 0.164465 2.126689 6.880306 3.514739 0.086605 0.332007 0.173430 0.151941 0.579691 0.303329 1.895396 6.478366 3.518960 -9.038466 0.835806 7.768077 -13.666470 -25.479168 12.444931 7.353973 -3.042376 -9.581974 -3.364617 -19.028212 -7.854536 -138.493570 -70.423250 163.312692 -12.356762 -9.074447 -19.660137 -7.832584 -5.926588 -1.014071 14.393867 -14.586305 10.126713 81.899180 -60.655829 -119.759710 5.600388 -2.256203 9.577024 -19.241640 -74.293375 18.277751 -131.298555 85.882532 -131.492694 -6.345839 -8.431666 -3.014435 -0.103672 -0.185953 0.109732 -5.014481 -73.759267 26.876569 84.274468 77.949406 83.101974 -12.078336 -7.551901 -0.220387 0.432586 0.596218 0.135316
22.345397 45.791548 -10.786465 159.358538 -13.209854 0.169276 2.100417 6.906452 3.548105 0.085250 0.334584 0.175721 0.149586 0.584109 0.307310 1.864399 6.502483 3.548704 -9.134240 0.964749 7.824770 -13.790301 -25.319339 12.531520 7.235080 -2.876772 -9.574098 -3.860508 -18.758358 -7.149339 -139.948680 -69.741614 165.043882 -12.443697 -9.355768 -19.585605 -7.465534 -5.612382 -0.930317 15.135518 -14.330735 9.041415 83.797255 -60.066068 -122.294557 5.838177 -2.533967 9.064759 -18.941071 -74.190355 18.147807 -130.426380 85.882273 -130.651837 -6.392242 -8.359332 -2.955999 -0.086755 -0.211977 0.052682 -4.983171 -73.623451 26.907746 84.062745 77.951987 82.920584 -12.073157 -7.504341 -0.261154 0.443662 0.574781 0.142533
22.356787 45.800377 -10.758041 159.284265 -13.321354 0.187265 2.062831 6.922511 3.566054 0.084041 0.337485 0.178128 0.147494 0.589174 0.311494 1.835723 6.529853 3.578731 -9.264899 1.104348 7.890233 -13.961915 -25.145841 12.640570 7.121792 -2.718143 -9.573893 -4.317497 -18.495641 -6.481786 -140.982639 -69.182907 166.387234 -12.523122 -9.646821 -19.563805 -7.084877 -5.288806 -0.834850 15.830302 -14.038789 7.980257 85.375711 -59.443458 -124.563878 6.107555 -2.845818 8.493915 -18.671162 -74.091244 18.007368 -129.782210 85.903229 -130.046203 -6.383647 -8.301773 -2.914538 -0.119209 -0.215396 0.035499 -4.937962 -73.482989 26.903860 83.782683 77.947269 82.666592 -12.060678 -7.463061 -0.310698 0.453934 0.565292 0.148047
22.369894 45.809577 -10.728544 159.245663 -13.433020 0.185958 1.985452 6.935861 3.593773 0.082836 0.340701 0.180754 0.145308 0.594746 0.315932 1.805921 6.559935 3.610353 -9.434419 1.256723 7.965117 -14.186474 -24.955919 12.774021 7.020168 -2.576632 -9.582505 -4.734126 -18.248502 -5.867498 -141.610215 -68.769245 167.354365 -12.596046 -9.953586 -19.599840 -6.689598 -4.956563 -0.733020 16.459165 -13.716494 6.965662 86.622934 -58.804321 -126.539240 6.416814 -3.187169 7.886591 -18.469412 -73.985029 17.887199 -129.149625 85.912579 -129.426180 -6.358729 -8.250424 -2.917242 -0.180823 -0.230988 0.034066 -4.929367 -73.347844 26.905993 83.457031 77.950430 82.388176 -12.098139 -7.461364 -0.389029 0.529050 0.601065 0.173943
22.382746 45.818791 -10.699593 159.144950 -13.548491 0.206390 1.958195 6.949262 3.614032 0.081440 0.344054 0.183519 0.142785 0.600390 0.320578 1.772802 6.590457 3.643696 -9.645697 1.424276 8.049327 -14.467452 -24.746340 12.932393 6.937334 -2.453192 -9.597261 -5.070157 -18.012432 -5.343493 -141.895706 -68.500797 167.965797 -12.661860 -10.271253 -19.703343 -6.279982 -4.610577 -0.632487 17.000892 -13.373683 6.018465 87.528438 -58.164091 -128.196443 6.770033 -3.547225 7.278255 -18.084504 -73.891075 17.707713 -128.155924 85.918560 -128.451600 -6.515582 -8.172695 -2.845513 -0.215678 -0.252025 0.004503 -4.803737 -73.220393 26.863561 83.209403 77.961663 82.185443 -12.085357 -7.409353 -0.436517 0.543863 0.575947 0.177910
22.401497 45.828525 -10.673129 159.014574 -13.691553 0.213635 1.950753 6.984847 3.657919 0.079766 0.347169 0.186244 0.139874 0.605600 0.325269 1.735991 6.618404 3.677563 -9.901536 1.608163 8.141263 -14.808086 -24.515384 13.114605 6.877083 -2.345044 -9.612508 -5.281950 -17.779259 -4.939005 -141.929819 -68.365119 168.269850 -12.710923 -10.596655 -19.885834 -5.854171 -4.248613 -0.536600 17.436012 -13.018572 5.148430 88.085966 -57.545987 -129.513662 7.171208 -3.912815 6.708375 -17.487529 -73.787202 17.406391 -126.877049 85.895977 -127.154304 -6.735675 -8.088666 -2.764139 -0.201189 -0.269375 0.008336 -4.707824 -73.069770 26.892804 83.031303 77.976941 82.042885 -12.007786 -7.320698 -0.452886 0.481126 0.505075 0.160554
22.417568 45.837432 -10.647629 158.888213 -13.831931 0.248770 1.923820 7.015549 3.677396 0.077774 0.349779 0.188908 0.136399 0.610109 0.329947 1.694207 6.641887 3.712247 -10.202973 1.807024 8.238597 -15.209783 -24.264516 13.318586 6.844730 -2.250650 -9.625845 -5.351639 -17.548212 -4.656507 -141.778170 -68.368259 168.313102 -12.739327 -10.931193 -20.146690 -5.414283 -3.875027 -0.449828 17.754261 -12.659719 4.363291 88.301389 -56.980545 -130.478376 7.620804 -4.284294 6.206859 -16.852700 -73.690637 17.017590 -126.042092 85.895231 -126.302771 -6.815642 -8.008314 -2.710837 -0.172178 -0.285517 0.016083 -4.502954 -72.918836 26.805416 82.898086 77.978433 81.926920 -11.946729 -7.299877 -0.451894 0.413911 0.485500 0.153258
22.437587 45.845198 -10.619880 158.763814 -13.963531 0.268618 1.881749 7.034945 3.716122 0.075264 0.351907 0.191601 0.132003 0.613838 0.334640 1.643582 6.660560 3.748737 -10.547643 2.019972 8.338860 -15.669150 -23.994638 13.540625 6.850245 -2.171753 -9.639195 -5.280091 -17.324300 -4.481743 -141.477899 -68.539419 168.125211 -12.759887 -11.283648 -20.468943 -4.965814 -3.497298 -0.379130 17.968079 -12.303551 3.678984 88.196153 -56.488406 -131.098770 8.102392 -4.675742 5.794760 -16.297162 -73.594090 16.710738 -125.240924 85.904540 -125.479878 -6.934886 -7.928463 -2.654697 -0.171752 -0.300824 0.014336 -4.285106 -72.763416 26.723425 82.552027 78.001290 81.638613 -11.959162 -7.311411 -0.504990 0.449429 0.518308 0.165287
22.459374 45.852077 -10.591587 158.636461 -14.089563 0.290603 1.823665 7.046626 3.754759 0.072119 0.353600 0.194413 0.126520 0.616664 0.339425 1.582018 6.674321 3.787776 -10.931750 2.248369 8.438936 -16.180052 -23.703837 13.775150 6.896971 -2.110464 -9.654179 -5.075398 -17.116633 -4.400076 -141.036742 -68.903007 167.713252 -12.790343 -11.661848 -20.831534 -4.519153 -3.122899 -0.328858 18.108448 -11.951679 3.112454 87.812199 -56.082828 -131.406441 8.588187 -5.096357 5.491452 -15.701068 -73.505745 16.390074 -124.362763 85.912572 -124.565901 -7.137481 -7.849827 -2.590589 -0.186856 -0.313575 0.010053 -4.133683 -72.627579 26.703340 82.342790 78.011394 81.473170 -11.955892 -7.278439 -0.546573 0.451519 0.500331 0.171476
22.486576 45.858226 -10.561232 158.493281 -14.207786 0.291844 1.763983 7.046480 3.816278 0.068467 0.354787 0.197243 0.120208 0.618658 0.344302 1.512252 6.683118 3.829065 -11.352318 2.494869 8.534973 -16.737121 -23.388779 14.015658 6.975405 -2.066433 -9.672133 -4.743968 -16.935972 -4.396764 -140.434749 -69.465735 167.062387 -12.834710 -12.052394 -21.223990 -4.090720 -2.760827 -0.301090 18.203932 -11.602595 2.677846 87.204853 -55.779975 -131.440239 9.052300 -5.548429 5.303370 -15.154854 -73.420214 16.140409 -123.588890 85.932419 -123.763956 -7.240980 -7.755981 -2.524236 -0.183128 -0.330497 0.006642 -4.046832 -72.497214 26.767802 82.121013 78.017362 81.307751 -11.959853 -7.256186 -0.605526 0.461148 0.492336 0.181847
22.513985 45.865168 -10.535869 158.309468 -14.346346 0.321275 1.721507 7.064389 3.856567 0.064386 0.355487 0.200007 0.113131 0.619972 0.349161 1.435347 6.687396 3.871403 -11.803640 2.761536 8.623083 -17.331458 -23.046964 14.254767 7.078007 -2.041782 -9.693641 -4.282081 -16.786836 -4.460256 -139.644656 -70.225971 166.144187 -12.886384 -12.429071 -21.639202 -3.690631 -2.426262 -0.296150 18.262499 -11.248450 2.385603 86.437322 -55.596863 -131.229646 9.472127 -6.021809 5.222440 -14.488373 -73.321123 15.812434 -122.828216 85.952711 -122.982381 -7.310376 -7.662713 -2.462797 -0.165609 -0.341560 0.014536 -3.834995 -72.312926 26.800163 81.841044 78.072488 81.022223 -11.979294 -7.314238 -0.617605 0.481620 0.543568 0.200761
